<?xml version="1.0" standalone="no"?>
<!DOCTYPE svg PUBLIC "-//W3C//DTD SVG 20010904//EN"
  "http://www.w3.org/TR/2001/REC-SVG-20010904/DTD/svg10.dtd">
<svg xmlns="http://www.w3.org/2000/svg" aria-hidden="true" viewBox="0 0 255.5 256"  width="1em" height="1em" fill="currentColor">
  <path
    d="M35.772 103.058c3.226-6.458 4.693-19.375 7.332-29.062 2.64-9.688 7.918-31.117 13.49-40.218 5.572-9.1 11.438-14.678 15.543-14.678 4.106 0 6.745 3.23 8.212 7.046 1.466 3.816 15.836 31.998 15.836 31.998s23.168-39.337 25.514-42.273c2.346-2.935 4.692-5.871 5.279-5.871.586 0 2.932 3.523 2.932 7.633 1.19 12.9-1.18 24.56 1.215 36.866 1.173 6.165 5.865 10.568 7.625 12.036 1.76 1.468 6.159 3.817 8.798 4.404 2.64.587 23.42 6.873 28.992 8.928 5.572 2.055 17.302 7.339 22.58 15.852 5.28 8.513 10.558 18.2 15.837 22.31 5.279 4.11 19.062 9.688 21.702 12.037 2.64 2.348 9.091 6.751 9.091 12.329s-.88 10.568-.88 10.568.708 9.138-.88 14.091c-2.492 7.78-8.798 17.026-9.677 18.788-.88 1.761-8.505 12.623-15.25 16.145-6.745 3.523-33.139 5.872-35.485 6.459-2.346.587-8.945 3.376-11.877 6.898-2.933 3.523-8.065 10.715-9.238 14.532-.736 2.392-1.471 5.016-2.713 6.857-14.24 12.23-37.437 9.61-51.453 7.372-39.106-6.26-88.36-17.77-97.351-64.822-1.173-7.046-4.19-35.721 8.11-56.85 3.695-6.346 14.134-12.22 16.716-19.375z" />
</svg>